# File created by Blade
# Date/Time:  Thu Jan 22 19:01:15 2015
# Frame Rate: 120.000 fps
#------------------------------------------------------
:FULLY-SPECIFIED
:DEGREES
2465
root -3.284845 33.239115 -0.041572 9.034242 -0.033137 2.659977
RightUpLeg -1.914751 -7.338130 -1.103258
RightLeg 0.539360 -0.000000 -0.000000
RightFoot -11.507224 -3.312654 3.036814
RightToeBase 5.211072 -0.000000 -0.000000
LeftUpLeg -2.616200 2.796573 1.808160
LeftLeg 1.891756 -0.000000 -0.000000
LeftFoot -10.004612 1.288844 -10.229275
LeftToeBase 7.191312 -0.000000 -0.000000
Spine -14.948775 2.717857 -0.960076
RightShoulder -5.486895 -31.025939 -8.125346
RightArm 138.222111 -37.331357 -48.249786
RightForeArm -13.676552 0.000000 113.740666
RightHand 14.582870 0.000000 -9.536616
RightHandThumb1 -24.326973 -0.000000 -32.862282
LeftShoulder -24.695795 -20.147550 56.713474
LeftArm 100.555371 -45.882256 -78.067891
LeftForeArm -23.549916 -0.000000 150.016904
LeftHand 16.908929 -0.000000 4.014803
LeftHandThumb1 -26.253704 0.000000 33.147579
Head 20.868344 -0.451542 12.727439
2466
root -3.284332 33.238360 -0.040084 9.039250 -0.064952 2.649456
RightUpLeg -1.904442 -7.304999 -1.099081
RightLeg 0.504495 -0.000000 -0.000000
RightFoot -11.486172 -3.309104 3.036052
RightToeBase 5.201481 -0.000000 -0.000000
LeftUpLeg -2.597187 2.838274 1.805223
LeftLeg 1.860321 -0.000000 -0.000000
LeftFoot -10.022148 1.301547 -10.279333
LeftToeBase 7.213348 -0.000000 -0.000000
Spine -14.981782 2.650027 -0.926354
RightShoulder -5.424412 -30.989857 -8.160974
RightArm 138.384445 -37.196692 -48.438401
RightForeArm -13.513023 -0.000000 113.630370
RightHand 14.871914 -0.000000 -9.551787
RightHandThumb1 -24.326973 -0.000000 -32.862282
LeftShoulder -24.751299 -20.098793 56.750364
LeftArm 100.606606 -45.777612 -78.167388
LeftForeArm -23.618486 -0.000000 149.985708
LeftHand 16.914206 -0.000000 3.928916
LeftHandThumb1 -26.253704 0.000000 33.147579
Head 20.901358 -0.424341 12.873181
2467
root -3.288919 33.238648 -0.041078 9.051583 -0.132524 2.644976
RightUpLeg -1.914213 -7.237029 -1.089646
RightLeg 0.470326 -0.000000 -0.000000
RightFoot -11.460527 -3.335725 3.024858
RightToeBase 5.210522 -0.000000 -0.000000
LeftUpLeg -2.581481 2.904666 1.811934
LeftLeg 1.818774 -0.000000 -0.000000
LeftFoot -9.986430 1.284251 -10.257931
LeftToeBase 7.197684 -0.000000 -0.000000
Spine -14.999183 2.587529 -0.937214
RightShoulder -5.374792 -30.953571 -8.141148
RightArm 138.606924 -36.996362 -48.746646
RightForeArm -13.621685 -0.000000 113.526400
RightHand 14.892645 -0.000000 -9.672842
RightHandThumb1 -24.326973 -0.000000 -32.862282
LeftShoulder -24.835190 -20.019433 56.819342
LeftArm 100.650807 -45.707406 -78.206899
LeftForeArm -23.410645 -0.000000 149.987136
LeftHand 16.811754 -0.000000 4.017118
LeftHandThumb1 -26.253704 0.000000 33.147579
Head 20.897670 -0.356107 13.087173
2468
root -3.286847 33.238379 -0.038736 9.049291 -0.142885 2.643839
RightUpLeg -1.893356 -7.239452 -1.095245
RightLeg 0.438784 -0.000000 -0.000000
RightFoot -11.449634 -3.310782 3.038966
RightToeBase 5.182536 -0.000000 -0.000000
LeftUpLeg -2.554427 2.906123 1.805808
LeftLeg 1.781537 -0.000000 -0.000000
LeftFoot -9.977966 1.315016 -10.210311
LeftToeBase 7.142385 -0.000000 -0.000000
Spine -15.015923 2.458560 -0.899242
RightShoulder -5.304962 -30.930807 -8.185447
RightArm 138.632310 -36.899745 -48.814129
RightForeArm -13.170245 -0.000000 113.484130
RightHand 15.197288 -0.000000 -9.127463
RightHandThumb1 -24.326973 -0.000000 -32.862282
LeftShoulder -24.902619 -19.946876 56.863463
LeftArm 100.618187 -45.631857 -78.185688
LeftForeArm -22.984115 -0.000000 150.018119
LeftHand 16.551023 -0.000000 4.180352
LeftHandThumb1 -26.253704 0.000000 33.147579
Head 20.942984 -0.260678 13.234948
